<svg width="225" height="226" viewBox="0 0 225 226" fill="none" xmlns="http://www.w3.org/2000/svg">
<circle cx="112.5" cy="112.881" r="110.339" stroke="#07DBB4" stroke-width="4"/>
<path d="M96.3186 56.9436V70.1955H78.6494V158.542H96.3186V171.794H105.153V158.542H113.988V171.794H122.823V158.542H129.448C142.821 158.542 153.744 147.619 153.744 134.247C153.744 125.05 148.619 116.974 141.044 112.85C146.151 108.381 149.326 101.772 149.326 94.4907C149.326 81.118 138.404 70.1955 125.031 70.1955H122.823V56.9436H113.988V70.1955H105.153V56.9436H96.3186ZM87.484 79.0301H125.031C133.624 79.0301 140.492 85.8977 140.492 94.4907C140.492 103.084 133.624 109.951 125.031 109.951H87.484V79.0301ZM87.484 118.786H129.448C138.042 118.786 144.909 125.653 144.909 134.247C144.909 142.84 138.042 149.707 129.448 149.707H87.484V118.786Z" fill="#07DBB4"/>
</svg>
